# xmcd CD database file
#
# Track frame offsets:
#	150
#	14670
#	36085
#	49370
#	64677
#	88532
#	105912
#	121905
#	142787
#	162435
#
# Disc length: 2410 seconds
#
# Revision: 2
# Processed by: cddbd v1.5.2PL0 Copyright (c) Steve Scherf et al.
# Submitted via: CDex 1.70beta3
#
DISCID=7c09680a
DTITLE=SLY - VULCAN WIND
DYEAR=1998
DGENRE=J-Metal
TTITLE0=Green Rebolution
TTITLE1=Vulcan Wind
TTITLE2=It's You Or Me, Babe
TTITLE3=Can't I Be Forgiven
TTITLE4=The Sun In Your Heart
TTITLE5=Snake Oil
TTITLE6=Hypocratic Oaf
TTITLE7=The Loss
TTITLE8=Nameless Streets
TTITLE9=Fly By Night
EXTD=YEAR: 1998
EXTT0=
EXTT1=
EXTT2=
EXTT3=
EXTT4=
EXTT5=
EXTT6=
EXTT7=
EXTT8=
EXTT9=
PLAYORDER=
